# xmcd
#
# Track frame offsets:
#	150
#	14190
#	29402
#	40768
#	62700
#	76333
#	89732
#	106826
#	120541
#	132855
#
# Disc length: 2002 seconds
#
# Revision: 1
# Processed by: cddbd v1.5.2PL0 Copyright (c) Steve Scherf et al.
# Submitted via: audiograbber 1.83.01
#
DISCID=8207d00a
DTITLE=Hank Williams Jr. - Lone Wolf
DYEAR=1990
DGENRE=Country
TTITLE0=Good Friends, Good Whiskey, Good Lovvin'
TTITLE1=U.S.A. Today
TTITLE2=Hot To Trot
TTITLE3=Big Mamou
TTITLE4=I Mean I Love You
TTITLE5=Man To Man
TTITLE6=Almost Persuaded
TTITLE7=Stoned At The Jukebox
TTITLE8=Ain't Nobody's Business
TTITLE9=Lone Wolf
EXTD=
EXTT0=
EXTT1=
EXTT2=
EXTT3=
EXTT4=
EXTT5=
EXTT6=
EXTT7=
EXTT8=
EXTT9=
PLAYORDER=
